<svg xmlns="http://www.w3.org/2000/svg" viewBox="0 0 500 500"><!--Goal (1)--><g id="freepik--Floor--inject-16--inject-8"><ellipse id="freepik--floor--inject-16--inject-8" cx="251.29" cy="342.68" rx="238.36" ry="144.31" style="fill:#f5f5f5"></ellipse></g><g id="freepik--Shadows--inject-16--inject-8"><path id="freepik--Shadow--inject-16--inject-8" d="M290.8,344.72l-35.32-20.39a7.69,7.69,0,0,0-6.93,0l-2.19,1.27L222,311.52a7.16,7.16,0,0,0-6.5,0L213,312.94l-21.69-12.52a6.67,6.67,0,0,0-6.06,0L182.58,302l-18.69-10.79a6.21,6.21,0,0,0-5.63,0l-2.84,1.64L134.79,280.9a5.72,5.72,0,0,0-5.19,0l-63,36.4c-1.43.83-1.43,2.17,0,3l23.11,13.34a2.28,2.28,0,0,0,.3.21l28.69,16.57.23.11,23.73,13.7.26.12,21.39,12.35.23.16,35.32,20.4a7.69,7.69,0,0,0,6.93,0l84.06-48.54C292.71,347.62,292.71,345.83,290.8,344.72Z" style="fill:#e0e0e0"></path><ellipse id="freepik--shadow--inject-16--inject-8" cx="339.86" cy="414.9" rx="57.37" ry="33.12" style="fill:#e0e0e0"></ellipse><ellipse id="freepik--shadow--inject-16--inject-8" cx="156.77" cy="412.45" rx="32.16" ry="18.57" style="fill:#e0e0e0"></ellipse><ellipse id="freepik--shadow--inject-16--inject-8" cx="111.89" cy="392.55" rx="32.16" ry="18.57" style="fill:#e0e0e0"></ellipse><path id="freepik--shadow--inject-16--inject-8" d="M421.73,425.57l15.56-9c1.38-.79,1.38-2.09,0-2.88L386,384.11a5.51,5.51,0,0,0-5,0l-15.56,9c-1.38.8-1.38,2.09,0,2.88l51.25,29.6A5.57,5.57,0,0,0,421.73,425.57Z" style="fill:#e0e0e0"></path></g><g id="freepik--Character--inject-16--inject-8"><g id="freepik--character--inject-16--inject-8"><path d="M360.35,185.84c6.12.27,9.58,1.07,12.69,5.61s12.41,25.81,13.8,28.6,2.7,6.54.65,9.87-18.63,24.62-18.63,24.62l-6.4-9.56,12-18.29-13-20.44Z" style="fill:#ffa8a7"></path><path d="M359.49,185.84c2.18-.25,6.17-3.53,10.08-.7s5.66,8.17,8,13.25c1.61,3.44,10.33,22.6,11,24.43s1.52,4.29-.62,7.36-8.8,11-8.8,11-6.19-1.57-8.22-9.16l2.84-5.58L364.68,213Z" style="fill:#7E57C2"></path><path d="M359.49,185.84c2.18-.25,6.17-3.53,10.08-.7s5.66,8.17,8,13.25c1.61,3.44,10.33,22.6,11,24.43s1.52,4.29-.62,7.36-8.8,11-8.8,11-6.19-1.57-8.22-9.16l2.84-5.58L364.68,213Z" style="fill:#fff;opacity:0.7000000000000001"></path><path d="M377,229.66l-3-4.34s-3-6.66-2.24-12.17c1.57-11.36.2-16-2-20.34l-8.82.71L364.68,213l9.08,13.52A17,17,0,0,0,377,229.66Z" style="opacity:0.1"></path><path d="M369.69,252.44a109.65,109.65,0,0,0-7.81-13.15L354.57,270l-11.68,12.4s7,36.07,8.67,43.85c1.46,6.6,9.75,52.45,9.75,52.45l1.27,10.79c7.75,1.81,9.28-.27,9.28-1.95s.58-8.39.58-8.39,1.73-.74,2-3.62c.16-1.53-2.07-2.51-1.9-6.4.56-12.24,2.7-27,2.74-30.91.1-11.4-4.12-18-4.12-18-.52-11.19.69-30.78.57-44.55C375.31,263.53,372.82,258.42,369.69,252.44Z" style="fill:#ffa8a7"></path><path d="M366.64,383.91C365,380,355,344.09,355,344.09s3.69,19.77,4.11,24.85c.3,3.61.6,10.75-.74,15s-4.72,11-8.42,11.5c2,1.35,10.14,3.23,13.3-1.92a25.84,25.84,0,0,0,1.9-3.6c5.54.81,6.72-1,6.72-2.45,0-.38,0-1,.08-1.82C370.82,388.5,368.25,387.8,366.64,383.91Z" style="fill:#f28f8f"></path><path d="M357.86,404.34s1.26,2,7.46-.92,7.86-6.14,7.86-6.14S371,384.67,367.23,388,357.86,404.34,357.86,404.34Z" style="fill:#7E57C2"></path><path d="M357.86,404.34s1.26,2,7.46-.92,7.86-6.14,7.86-6.14S371,384.67,367.23,388,357.86,404.34,357.86,404.34Z" style="opacity:0.30000000000000004"></path><path d="M373.61,372.34c-1.31-.63-4.69.94-6.64,2.76-2.56,2.4-3.07,5.51-4.28,9.2-1.29,3.94-3.7,9.38-5.78,10.66s-6,.34-9.23.45-5.63,1.69-5.71,4c0,1.84,8.5,5.73,13.78,5.73,4.39,0,5.91.68,8.06-5.82s2.93-10.15,5-5.87,3.31,14,3.31,14a3.25,3.25,0,0,0,3.59-.15s0-6.24.35-10.2,2.22-10.24,1.75-15S374.91,372.93,373.61,372.34Z" style="fill:#263238"></path><path d="M345.67,284.72c1.11-9-25.26-19.5-25.26-19.5s-4.62,66.27-4.62,79.42c0,6.76-.68,59.9-.68,59.9l1.27,10.79c7.76,1.81,9.28-.28,9.28-1.95s.58-8.39.58-8.39,1.16-.57,1.46-3.45c.17-1.53-.34-3.57-.16-5.94.93-12.21,3.64-20.55,6.24-32.27a103.11,103.11,0,0,0,2.27-21.52C338.81,327.15,344.38,295.2,345.67,284.72Z" style="fill:#ffa8a7"></path><path d="M320.44,409.79c-1.61-3.89-5.33-46.13-5.33-46.13-.37,14.73-.42,27.36-.76,32.76a56.69,56.69,0,0,1-2.19,13.42c-1.34,4.27-4.72,11-8.41,11.51,2,1.35,10.14,3.22,13.29-1.92a24.77,24.77,0,0,0,1.9-3.61c5.54.82,6.72-1,6.72-2.44,0-.38,0-1,.08-1.82C324.62,414.39,322.05,413.69,320.44,409.79Z" style="fill:#f28f8f"></path><path d="M310.51,430.46s1.17,2.05,7.49-.61,8.1-5.81,8.1-5.81-1.64-12.69-5.55-9.5S310.51,430.46,310.51,430.46Z" style="fill:#7E57C2"></path><path d="M310.51,430.46s1.17,2.05,7.49-.61,8.1-5.81,8.1-5.81-1.64-12.69-5.55-9.5S310.51,430.46,310.51,430.46Z" style="opacity:0.30000000000000004"></path><path d="M327.57,399.14c-1.29-.68-4.73.74-6.75,2.48-2.65,2.29-3.3,5.38-4.66,9-1.45,3.88-4.08,9.21-6.21,10.4s-6,.1-9.24.08-5.7,1.45-5.88,3.79c-.09,1.85,8.26,6.09,13.54,6.3,4.38.18,5.87.93,8.29-5.48s3.34-10,5.27-5.66,2.66,13.44,2.66,13.44,1.51,1.8,3.87.09a84,84,0,0,1,.56-9.55c.55-3.94,2.64-10.14,2.37-14.89S328.85,399.78,327.57,399.14Z" style="fill:#263238"></path><path d="M322,241.33c-2.35,14.28-2.78,18.71-4.52,37-1.34,14.24-2.18,55.4-2.24,61.15s-.93,41.3-.93,41.3,7.87,6.71,15.19,1.47c0,0,4.29-15.53,5.78-21.09,1.86-7,2.5-10.76,1.62-19.63l7.79-48.44s6.53,34.76,8.4,44.66,4.15,19.1,4.15,19.1a15,15,0,0,0,8.3,1.9,11.39,11.39,0,0,0,8.09-3.79s2-12.7,2.08-17.15A34.94,34.94,0,0,0,371.6,320l1-44.38s3.24-7.89,1-15.6c-2.78-9.63-11.28-24.12-11.28-24.12Z" style="fill:#37474f"></path><path d="M344.73,293.11l3.14-11.55s9.68-.76,14.83-7.44c-1.65,3.14-3.23,6.84-12,10.17l-3.05,11.77,4.83,38.47Z" style="fill:#263238"></path><path d="M371.38,199.12c-.66-4.66-2.31-10.3-6.8-12.23S352,185.71,352,185.71c-.63,2.12-8.37,4.84-12.18,1.17-3.71.78-8.26,1.63-13.25,2.84-4,1-6.27,15.95-8.87,20.78-3.07,5.67-.08,13.43,3.81,16.41,0,0,.06,8,.5,14.42,6.83,5.72,19.59,7.28,29.45,4.71,7.42-1.93,9.49-4.4,11.07-9.69.66-2.21,1.62-5.32,3-9.15C368.76,218.31,372.26,205.32,371.38,199.12Z" style="fill:#7E57C2"></path><path d="M371.38,199.12c-.66-4.66-2.31-10.3-6.8-12.23S352,185.71,352,185.71c-.63,2.12-8.37,4.84-12.18,1.17-3.71.78-8.26,1.63-13.25,2.84-4,1-6.27,15.95-8.87,20.78-3.07,5.67-.08,13.43,3.81,16.41,0,0,.06,8,.5,14.42,6.83,5.72,19.59,7.28,29.45,4.71,7.42-1.93,9.49-4.4,11.07-9.69.66-2.21,1.62-5.32,3-9.15C368.76,218.31,372.26,205.32,371.38,199.12Z" style="fill:#fff;opacity:0.8"></path><path d="M338.63,177.62l.52,11.29c6.8,2.38,16.13.65,15-3.32l-.17-10.2Z" style="fill:#ffa8a7"></path><path d="M320.59,143.05a11.93,11.93,0,0,1-.17-2.6,6,6,0,0,1,.79-2.95c1.39-2.2,3.87-2.09,6.13-2A35.66,35.66,0,0,0,340.61,134c1.76-.58,3.46-1.34,5.24-1.89,4.47-1.4,9.54-1.43,13.65.82a12.11,12.11,0,0,1,6,7.77c.36,1.57.11,3.12.34,4.68.29,1.92,1,3.75,1.28,5.67a45.1,45.1,0,0,1,.3,6.26c0,8.64-20.32,13.38-20.18,19.31l-10.11-13.46c0-.54-1.42-1.95-1.74-2.42-.6-.89-1.13-1.83-1.68-2.75a14.46,14.46,0,0,0-4-4.32c-1.53-1.11-3.3-1.84-4.75-3.06A12.88,12.88,0,0,1,320.59,143.05Z" style="fill:#263238"></path><path d="M327.88,157.93s-3.69,5-3.26,5.55a8.23,8.23,0,0,0,2.6,1.24Z" style="fill:#f28f8f"></path><path d="M339.16,142.1c-3.44,1.56-9.39,4.47-11.41,16.58-2.09,12.43.55,16.9,2.22,18.61,1.12,1.16,7.14,1.82,10.33,1,4-1,12.72-4.8,17-11.08,5.05-7.38,6.46-17.46,1.2-21.66C351.09,139.63,342.07,140.78,339.16,142.1Z" style="fill:#ffa8a7"></path><path d="M330.28,177.53c1.38.84,5.38,1.34,8.4,1v-2.25a22.32,22.32,0,0,1-4,1.13A14.45,14.45,0,0,1,330.28,177.53Z" style="fill:#f28f8f"></path><path d="M337.7,141.67a13.35,13.35,0,0,0-4,2.08,5.36,5.36,0,0,0-1.46,1.72,4.15,4.15,0,0,0-.37,2,5.37,5.37,0,0,0,2.95,4.48,5.28,5.28,0,0,0-1,4.32,10.45,10.45,0,0,0,2.89,4.57.69.69,0,0,0,.25.2.69.69,0,0,0,.56-.14c2.17-1.32,3.58-3.71,6.53-2.6,3.86,1.46,3.91,5.27,1.44,8.54a5.21,5.21,0,0,1-3.77,2.38,2.92,2.92,0,0,1-2.41-.8s.33,7.26,5.71,10c0,0,6.37,1.75,9.89-.33,2.18-2.54,5.79-5.74,8.78-8.62,9.84-9.47,11-23.81-2.67-29-.47-.18-.94-.34-1.42-.49a29.89,29.89,0,0,0-20.22,1C338.78,141.26,338.24,141.47,337.7,141.67Z" style="fill:#263238"></path><path d="M336.22,165.24a2.9,2.9,0,0,1-1.61-3.8,3,3,0,0,1,3.86-1.59Z" style="fill:#263238"></path><path d="M364.94,143.69a2.55,2.55,0,0,0,3.63-.35,2.62,2.62,0,0,0-.4-3.66Z" style="fill:#263238"></path><path d="M338.86,182.58c-.85-.05-1.39.35-2.41,1.67-1.42,1.83-3.38,4-3.38,4s1.74,3.22,7.28,4.32,10.27.6,13.12-.56,3.3-2.1,3.66-3.37-.31-3.32-1.14-5.11-1.86-1.69-1.86-1.69v1.43s-.3,1.52-4.58,2.28-9.36,0-10.61-1.2Z" style="fill:#7E57C2"></path><path d="M338.86,182.58c-.85-.05-1.39.35-2.41,1.67-1.42,1.83-3.38,4-3.38,4s1.74,3.22,7.28,4.32,10.27.6,13.12-.56,3.3-2.1,3.66-3.37-.31-3.32-1.14-5.11-1.86-1.69-1.86-1.69v1.43s-.3,1.52-4.58,2.28-9.36,0-10.61-1.2Z" style="fill:#fff;opacity:0.7000000000000001"></path><path d="M326.6,189.72c-4.81.67-6.84,1.78-11.11,7.92s-18.27,27.46-20,32.28c-2.28,6.45-.46,8,2.53,10.76,2.74,2.55,17.42,14.56,18.41,15.84s0,12,1.81,13.81c0,.07,0,.09,0,0,0-.38.34-2,.8-4a37.15,37.15,0,0,1,4.15-9c1.5-2.53,2.87-5.39,2.44-8.36-.24-1.63-2.57-2.78-4.19-4.32-4.22-4-10.16-11.27-10.16-11.27l18.13-21.76C331.59,208.93,336.83,197.64,326.6,189.72Z" style="fill:#ffa8a7"></path><path d="M327.86,189.42c-3.28-2.54-9.35-3.93-13.13,5.81C313,199.79,301.38,216.9,298.05,223s-6.19,11.28-3.56,14.77,11,9.41,11,9.41,7.43-2.41,9.27-9.65l-3.44-4L327,215.54c2.5-2.86,4.89-5.15,6.09-10.14S334.11,194.77,327.86,189.42Z" style="fill:#7E57C2"></path><path d="M327.86,189.42c-3.28-2.54-9.35-3.93-13.13,5.81C313,199.79,301.38,216.9,298.05,223s-6.19,11.28-3.56,14.77,11,9.41,11,9.41,7.43-2.41,9.27-9.65l-3.44-4L327,215.54c2.5-2.86,4.89-5.15,6.09-10.14S334.11,194.77,327.86,189.42Z" style="fill:#fff;opacity:0.7000000000000001"></path><path d="M311.33,233.43a38.56,38.56,0,0,1-3.45,2.94l4.43-1.77Z" style="opacity:0.1"></path></g></g><g id="freepik--Stairs--inject-16--inject-8"><g id="freepik--Steps--inject-16--inject-8"><path d="M161,346.2v3.26a7.67,7.67,0,0,0,3.46,6l35.32,20.39a7.69,7.69,0,0,0,6.93,0l84.06-48.54a7.65,7.65,0,0,0,3.46-6v-3.25a7.65,7.65,0,0,0-3.46-6l-35.32-20.39a7.63,7.63,0,0,0-6.93,0L164.49,340.2A7.65,7.65,0,0,0,161,346.2Z" style="fill:#7E57C2"></path><path d="M164.49,344.2l35.32,20.39a7.69,7.69,0,0,0,6.93,0l84.06-48.53c1.91-1.11,1.91-2.9,0-4l-35.32-20.39a7.63,7.63,0,0,0-6.93,0L164.49,340.2C162.58,341.3,162.58,343.09,164.49,344.2Z" style="fill:#fff;opacity:0.5"></path><path d="M203.27,365.42v11.25a7.11,7.11,0,0,1-3.46-.82l-35.32-20.39a7.68,7.68,0,0,1-3.46-6V346.2a7.75,7.75,0,0,1,3.11-5.78c-1.55,1.12-1.43,2.75.35,3.78l35.32,20.39A7.08,7.08,0,0,0,203.27,365.42Z" style="opacity:0.2;mix-blend-mode:multiply"></path><path d="M294.27,318.06v3.25a7.66,7.66,0,0,1-3.47,6l-84.06,48.54a7.12,7.12,0,0,1-3.47.82V365.42a7.1,7.1,0,0,0,3.47-.83l84.06-48.53c1.79-1,1.91-2.67.35-3.78A7.75,7.75,0,0,1,294.27,318.06Z" style="fill:#7E57C2"></path><path d="M64,146.19v2.44a5.76,5.76,0,0,0,2.6,4.5L93,168.42a5.74,5.74,0,0,0,5.2,0l63-36.4a5.71,5.71,0,0,0,2.6-4.5v-2.44a5.73,5.73,0,0,0-2.6-4.5l-26.49-15.29a5.72,5.72,0,0,0-5.19,0l-63,36.4A5.76,5.76,0,0,0,64,146.19Z" style="fill:#7E57C2"></path><path d="M66.55,144.69,93,160a5.74,5.74,0,0,0,5.2,0l63-36.4c1.44-.83,1.44-2.17,0-3l-26.49-15.29a5.72,5.72,0,0,0-5.19,0l-63,36.4C65.12,142.52,65.12,143.86,66.55,144.69Z" style="fill:#fff;opacity:0.5"></path><path d="M95.64,160.6V169a5.37,5.37,0,0,1-2.6-.61l-26.49-15.3a5.76,5.76,0,0,1-2.6-4.5v-2.44a5.82,5.82,0,0,1,2.34-4.33c-1.17.83-1.08,2.06.26,2.83L93,160A5.24,5.24,0,0,0,95.64,160.6Z" style="opacity:0.2;mix-blend-mode:multiply"></path><path d="M163.88,125.08v2.44a5.73,5.73,0,0,1-2.6,4.5l-63,36.41a5.37,5.37,0,0,1-2.6.61V160.6a5.26,5.26,0,0,0,2.6-.62l63-36.4c1.34-.77,1.43-2,.27-2.83A5.8,5.8,0,0,1,163.88,125.08Z" style="fill:#7E57C2"></path><path d="M133.42,290.38v3.06a7.16,7.16,0,0,0,3.24,5.62l33.11,19.12a7.22,7.22,0,0,0,6.5,0l78.81-45.5a7.18,7.18,0,0,0,3.24-5.63V264a7.16,7.16,0,0,0-3.24-5.62L222,239.26a7.16,7.16,0,0,0-6.5,0l-78.81,45.5A7.18,7.18,0,0,0,133.42,290.38Z" style="fill:#7E57C2"></path><path d="M172.81,308.4V319a6.55,6.55,0,0,1-3-.77l-33.11-19.12a7.17,7.17,0,0,1-3.25-5.62v-3.05a7.28,7.28,0,0,1,2.89-5.4c-1.42,1.05-1.3,2.56.36,3.52l33.11,19.12A6.52,6.52,0,0,0,172.81,308.4Z" style="opacity:0.2;mix-blend-mode:multiply"></path><path d="M136.66,288.51l33.11,19.12a7.22,7.22,0,0,0,6.5,0l78.81-45.5c1.79-1,1.79-2.72,0-3.75L222,239.26a7.16,7.16,0,0,0-6.5,0l-78.81,45.5C134.87,285.8,134.87,287.47,136.66,288.51Z" style="fill:#fff;opacity:0.5"></path><path d="M108.67,239.53v2.85a6.69,6.69,0,0,0,3,5.25l30.91,17.85a6.74,6.74,0,0,0,6.06,0L222.22,223a6.69,6.69,0,0,0,3-5.25v-2.85a6.69,6.69,0,0,0-3-5.25l-30.9-17.84a6.67,6.67,0,0,0-6.06,0L111.7,234.28A6.72,6.72,0,0,0,108.67,239.53Z" style="fill:#7E57C2"></path><path d="M111.7,237.78l30.91,17.85a6.74,6.74,0,0,0,6.06,0l73.55-42.47c1.68-1,1.68-2.53,0-3.5l-30.9-17.84a6.67,6.67,0,0,0-6.06,0L111.7,234.28C110,235.25,110,236.82,111.7,237.78Z" style="fill:#fff;opacity:0.5"></path><path d="M145.64,256.35v9.85a6.27,6.27,0,0,1-3-.72l-30.9-17.84a6.72,6.72,0,0,1-3-5.25v-2.85a6.76,6.76,0,0,1,2.72-5c-1.35,1-1.25,2.39.31,3.3l30.9,17.84A6.27,6.27,0,0,0,145.64,256.35Z" style="opacity:0.2;mix-blend-mode:multiply"></path><path d="M85.84,192v2.65a6.23,6.23,0,0,0,2.81,4.88l28.7,16.56a6.21,6.21,0,0,0,5.63,0l68.3-39.43a6.23,6.23,0,0,0,2.81-4.88v-2.64a6.23,6.23,0,0,0-2.81-4.88l-28.7-16.56a6.21,6.21,0,0,0-5.63,0l-68.3,39.43A6.23,6.23,0,0,0,85.84,192Z" style="fill:#7E57C2"></path><path d="M88.65,190.39,117.35,207a6.27,6.27,0,0,0,5.63,0l68.3-39.44c1.55-.89,1.55-2.35,0-3.25l-28.7-16.56a6.21,6.21,0,0,0-5.63,0l-68.3,39.43C87.1,188,87.1,189.49,88.65,190.39Z" style="fill:#fff;opacity:0.5"></path><path d="M120,207.63v9.14a5.57,5.57,0,0,1-2.65-.67l-28.7-16.56a6.23,6.23,0,0,1-2.81-4.88V192a6.28,6.28,0,0,1,2.3-4.52c-1,.89-.85,2.1.51,2.89L117.35,207A5.54,5.54,0,0,0,120,207.63Z" style="opacity:0.2;mix-blend-mode:multiply"></path></g></g><g id="freepik--Flag--inject-16--inject-8"><g id="freepik--Pennant--inject-16--inject-8"><path d="M153.49,65.63c9.64-2.91,15.85-8.11,19.32-18.6,0,0-5.41,4.89-15,4.89s-18.76-3.27-27.3-3.27a54.33,54.33,0,0,0-17,3.27V81a32.71,32.71,0,0,1,17-5c8.54,0,17.72,3.28,27.3,3.28a24.68,24.68,0,0,0,10.19-2,31.59,31.59,0,0,0,8.87-6.72A32.89,32.89,0,0,1,153.49,65.63Z" style="fill:#7E57C2"></path><path d="M136,69.54l-3.7-1.89-3.66,2a1,1,0,0,1-1.52-1.08l.66-4.11-3-2.87a1,1,0,0,1,.55-1.77l4.11-.65,1.8-3.75a1,1,0,0,1,1.86,0l1.88,3.71,4.13.55a1,1,0,0,1,.59,1.76l-2.94,2.94.75,4.09A1,1,0,0,1,136,69.54Z" style="fill:#455a64"></path><path d="M113.49,43.53a1.06,1.06,0,0,0-.6-.82,3.26,3.26,0,0,0-2.92,0,1.06,1.06,0,0,0-.6.82h0V132c0,.64.92,1.17,2.06,1.17s2.06-.53,2.06-1.17h0V43.53Z" style="fill:#455a64"></path><ellipse cx="111.43" cy="43.54" rx="2.07" ry="1.17" style="fill:#37474f"></ellipse></g></g></svg>