<?xml version="1.0" encoding="UTF-8"?>
<svg id="Capa_1" data-name="Capa 1" xmlns="http://www.w3.org/2000/svg" viewBox="0 0 1324.33 954.3">
  <g>
    <path d="M901.77,272.39c-.66-1.14-1.32-2.28-1.97-3.42-.36,.03-.72,.05-1.08,.07,.82,1.19,1.87,2.32,3.05,3.35Z" style="fill: #190933;"/>
    <path d="M896.22,298.77c.51,.02,1.03,.03,1.56,.04,3.59-3.84,8.28-6.54,13.04-6.82v-4.05c-.06,0-.11,0-.17-.02-7.69-1.12-18.11-8.24-22.12-16.56l-.07,19.49c.32-.17,.64-.35,.97-.52,3.84-1.93,8.48,1.25,7.35,5.65-.24,.92-.41,1.85-.55,2.79Z" style="fill: #190933;"/>
    <path d="M894.59,569.1c-.02-.08-.03-.16-.05-.25-1.19-.06-2.37-.1-3.56-.13,.04,.32,.07,.63,.11,.95,1.13-.35,2.31-.53,3.5-.57Z" style="fill: #190933;"/>
    <path d="M893.19,662.42c.03-.06,.06-.13,.09-.19-.18-1.12-.3-2.25-.37-3.36-.4-.33-.79-.67-1.16-1.01-1.43,.97-2.95,1.78-4.52,2.39v2.01c1.96-.08,3.95,0,5.96,.17Z" style="fill: #190933;"/>
    <path d="M895.8,737.81c-2.44,.23-4.02-1.32-4.6-3.25-1.41-.04-2.82-.09-4.23-.17l-.16,48.83H17.81V186.22H888.81l-.12,34.64c7.33-.63,14.76-.61,22.12-.56V0H0V800H910.81v-63.12c-5.01,.27-10.02,.47-15.01,.93ZM17.81,13.22H888.81V172.22H17.81V13.22Z" style="fill: #190933;"/>
    <path d="M895.49,385.83c.27,.25,.52,.51,.78,.76,.28,.06,.57,.14,.87,.26,5.24,2.2,10.09,5.8,13.68,10.33v-34.96c-.33,0-.64,.01-.97,.02-1.38,.39-2.75,.62-4.03,.55-.88-.05-1.7-.32-2.47-.72-4.04-.24-8.09-.78-11.95-1.81-1.06-.03-2.11-.06-3.17-.1l-.09,25.9c1.89-1.73,5.31-2.13,7.34-.23Z" style="fill: #190933;"/>
    <polygon points="832.81 52.22 789.81 88.22 748.81 49.22 733.1 62.76 775.81 100.22 741.81 132.22 754.56 142.76 789.37 112.19 824.18 142.76 837.81 131.22 804.81 99.22 845.65 62.76 832.81 52.22" style="fill: #190933;"/>
    <path d="M45.54,146.67H637.57V40H45.54v106.67ZM63.81,56.22H619.81v76H63.81V56.22Z" style="fill: #190933;"/>
  </g>
  <path d="M905,269.65c-117.68-9.46-220.48,74.91-229.61,188.46-9.13,113.55,78.86,213.27,196.54,222.74,117.68,9.46,220.48-74.91,229.61-188.46,9.05-113.52-78.9-213.2-196.54-222.74Zm-30.79,382.84c-101.45-8.16-177.3-94.13-169.43-192.01,7.87-97.89,96.49-170.63,197.94-162.47,101.45,8.16,177.3,94.13,169.43,192.01-8.03,97.81-96.55,170.46-197.94,162.47Z" style="fill: #190933;"/>
  <path d="M1310.21,858.52l-8.52-9.87c-34.59-68.38-84.91-127.87-146.94-173.73-9.77-7.19-23.01-7.74-33.32-1.37l-21.3-23.86c99.33-116.1,84.16-289.81-33.88-387.98-31.2-29.57-97.37-56.96-144.45-62.77l-.12-.92c-.57-.05-1.14-.16-1.69-.34l-12.55-.68c-99.05-7.8-194.75,36.68-251.51,116.9l-50.3-42.08c16.59-23.2,10.4-55.51-14.01-71.16-22.2-14.23-52.21-9.16-68.24,11.55-17.63,22.77-12.39,55.24,11.19,71.64,18.43,12.82,43.19,12.22,60.9-1.47l52.55,43.57c-58.22,91.78-56.04,208.87,5.55,298.76l-71.53,41.61c-10.07,5.92-16.66,16.21-17.76,27.72l-2.93,36.49c-29.1,1.78-51.01,27.01-48.01,55.87,.16,1.56,.41,3.1,.72,4.61,5.05,.05,10.09,.16,15.13,.31-1.16-4.04-1.64-8.34-1.28-12.76,1.61-19.99,19.36-34.88,39.65-33.24,20.29,1.63,35.43,19.16,33.83,39.15-.27,3.3-.98,6.44-2.07,9.41,5.12,.03,10.23,.06,15.35,.08,1.3-5.03,1.84-10.35,1.49-15.82-1.47-22.5-17.79-41.4-40.1-46.42l2.93-36.49c.55-7.02,4.53-13.34,10.68-16.92l71.59-42.33c47.92,64.06,121.56,104.63,201.95,111.26l41.04-.3c.84-.4,1.85-.6,3.01-.5,.72,.06,1.36,.22,1.93,.45,49.19-3.98,96.43-20.69,136.91-48.48l19.21,22.24c-8.03,9.01-9.6,21.97-3.95,32.62,36.03,67.65,87.6,126.1,150.59,170.67l8.52,9.87c21.15,24.48,58.38,27.47,83.17,6.69,24.79-20.78,27.74-57.48,6.59-81.95ZM600.38,245.17c-1.61,19.99-19.36,34.88-39.65,33.24-20.29-1.63-35.43-19.16-33.83-39.15,1.61-19.99,19.36-34.88,39.65-33.24,20.29,1.63,35.43,19.16,33.83,39.15Zm293.04,473.73c-3.45-.28-6.92-.33-10.38-.08-5.66,.4-11.69-.09-17.52-.56-139.38-11.21-243.06-132.75-229.64-270.43,13.18-135.22,135.81-233.24,273.2-221.55,5.94,.51,11.93,1.14,17.27,2.4l6.47,.52c125.51,24.14,212.69,137.47,202.32,263-10.11,125.33-114.18,222.93-241.71,226.7Zm164.27-28.9c11.69-9.09,22.63-19.08,32.72-29.87l19.48,22.55-33.62,28.19-18.58-20.88Zm29.88,49.62l49.48-41.49c29.73,22.09,56.72,47.54,80.42,75.84l-66.93,56.12c-24.56-27.59-45.7-57.96-62.98-90.46Zm133.5,155.16c-10.04-7.51-19.61-15.42-28.88-23.45l29.82-25c3.11-2.61,3.48-7.21,.83-10.28-2.65-3.07-7.32-3.45-10.43-.84l-31.72,26.6c-7.15-6.7-13.69-13.63-20.81-20.76l66.28-55.44c16.87,21.13,31.89,43.65,44.87,67.29l-24.75,20.89-25.2,21Zm63.34,23.46c-12.37,10.31-30.88,8.82-41.44-3.33l44.72-37.5c10.49,12.21,9.02,30.45-3.28,40.83Z" style="fill: #190933;"/>
  <path d="M915.67,363.27c-6.88-10.25-21.03-13.22-31.61-6.64-1.68,1.04-3.2,2.3-4.54,3.73l-119.81,141.78c-11.1,13.1-9.05,32.47,4.59,43.26,5,3.96,11.12,6.36,17.55,6.9l199.56,16.05c17.53,1.37,32.81-11.24,34.13-28.16,.48-6.21-1-12.42-4.25-17.82l-95.61-159.1Zm70.2,175.33c-.42,.76-1.27,1.2-2.16,1.11l-199.56-16.05c-.89-.06-1.66-.63-1.95-1.44-.36-.74-.29-1.6,.18-2.27l113.09-133.61,90.28,149.97c.58,.76,.61,1.79,.09,2.58l.02-.28Z" style="fill: #190933;"/>
  <path d="M892.46,425.62c-4.06-.33-7.6,2.58-7.92,6.5l-3.42,42.54c-.31,3.92,2.72,7.35,6.78,7.68s7.6-2.58,7.92-6.5l3.42-42.54c.31-3.92-2.72-7.35-6.78-7.68Z" style="fill: #190933;"/>
  <path d="M94.54,492.81h64.36v85.82c0,5.92,4.81,10.73,10.73,10.73s10.73-4.81,10.73-10.73v-85.82h32.18c5.92,0,10.73-4.81,10.73-10.73s-4.81-10.73-10.73-10.73h-32.18v-21.45c0-5.92-4.81-10.73-10.73-10.73s-10.73,4.81-10.73,10.73v21.45h-53.63v-107.27c0-5.92-4.81-10.73-10.73-10.73s-10.73,4.81-10.73,10.73v118c0,5.92,4.81,10.73,10.73,10.73Z" style="fill: #190933;"/>
  <path d="M427.08,492.81h64.36v85.82c0,5.92,4.81,10.73,10.73,10.73s10.73-4.81,10.73-10.73v-85.82h32.18c5.92,0,10.73-4.81,10.73-10.73s-4.81-10.73-10.73-10.73h-32.18v-21.45c0-5.92-4.81-10.73-10.73-10.73s-10.73,4.81-10.73,10.73v21.45h-53.63v-107.27c0-5.92-4.81-10.73-10.73-10.73s-10.73,4.81-10.73,10.73v118c0,5.92,4.81,10.73,10.73,10.73Z" style="fill: #190933;"/>
  <path d="M314.44,589.35c38.45,0,69.73-31.28,69.73-69.73v-96.54c0-38.45-31.28-69.73-69.73-69.73s-69.73,31.28-69.73,69.73v96.54c0,38.45,31.28,69.73,69.73,69.73Zm-48.27-166.27c0-26.61,21.66-48.27,48.27-48.27s48.27,21.66,48.27,48.27v96.54c0,26.61-21.66,48.27-48.27,48.27s-48.27-21.66-48.27-48.27v-96.54Z" style="fill: #190933;"/>
  <path d="M1105.91,191.25c4.09,4.36,10.94,4.57,15.3,.49,.17-.16,.33-.32,.49-.49l45.09-45.09c4.36-4.36,4.36-11.42,0-15.78-4.36-4.36-11.42-4.36-15.78,0h0l-45.09,45.09c-4.36,4.09-4.57,10.94-.49,15.3,.16,.17,.32,.33,.49,.49Z" style="fill: #190933;"/>
  <path d="M1221.56,195.76l-45.09,22.54c-5.6,2.71-7.95,9.46-5.23,15.06,1.89,3.9,5.85,6.38,10.19,6.36,1.71-.02,3.4-.41,4.96-1.13l45.09-22.54c5.6-2.74,7.92-9.5,5.19-15.1s-9.5-7.92-15.1-5.19h0Z" style="fill: #190933;"/>
  <path d="M1079.99,138.27v-45.09c0-6.23-5.05-11.27-11.27-11.27s-11.27,5.05-11.27,11.27v45.09c0,6.23,5.05,11.27,11.27,11.27s11.27-5.05,11.27-11.27Z" style="fill: #190933;"/>
</svg>