<?xml version="1.0" encoding="utf-8"?>
<!-- Generator: Adobe Illustrator 26.5.0, SVG Export Plug-In . SVG Version: 6.00 Build 0)  -->
<svg version="1.1" id="Capa_1" xmlns="http://www.w3.org/2000/svg" xmlns:xlink="http://www.w3.org/1999/xlink" x="0px" y="0px"
	 viewBox="0 0 500 500" style="enable-background:new 0 0 500 500;" xml:space="preserve">
<style type="text/css">
	.st0{fill:#263238;}
	.st1{fill:#FFA8A7;}
	.st2{fill:#455A64;}
	.st3{fill:#37474F;}
	.st4{fill:#7E57C2;}
	.st5{opacity:0.6;}
	.st6{fill:#FFFFFF;}
	.st7{fill:#E0E0E0;}
	.st8{opacity:0.1;enable-background:new    ;}
	.st9{fill:#F28F8F;}
</style>
<g id="freepik--character-2--inject-7">
	<g id="freepik--Character--inject-7">
		<path class="st0" d="M260.2,368.6c-1.5,1.3-3.6,7.5-3.9,8.2c-1.2,3-2.6,5.9-4.2,8.8c-0.6,1-1.4,1.8-2,2.8
			c-0.5,0.8-1.2,1.3-2.1,1.6c-0.8,0.3-1.6,0.2-2.3-0.3c-0.5-0.4-0.8-1-0.8-1.7c0-1.2,0.1-2.4,0.4-3.6c-1.1,1.6-2.4,3-4,4.2
			c-1.1,0.9-1.6,1.1-2.8,1.9c-1,0.6-1.9,1.3-2.7,2c-0.7,0.6-1.2,1.4-1.4,2.3c-0.2,1.4,0.4,2.8,1.5,3.6c1.2,0.8,2.5,1.2,3.9,1.3
			c4.9,0.6,10.8,0.1,14.4-3.6c1.2-1.2,2-2.6,2.6-4.2c0.6-2.2,1.5-4.3,2.4-6.4c1.1-1.9,2.3-3.7,3.8-5.3c0.6-0.6,1.1-1.4,1.5-2.2
			c0.4-1.3,0.3-2.6-0.2-3.8c-0.7-1.8-1.6-3.6-2.7-5.2c-0.1-0.2-0.3-0.4-0.5-0.5C260.7,368.3,260.4,368.4,260.2,368.6z"/>
		<path class="st1" d="M366,296.6c-0.6-0.5-1.3-1-2-1.4c-2.4-1.3-4.4-3.1-6-5.2c-1.8-2.8-2.3-6.4-4.6-8.8c-1.6-1.6-3.8-2.4-6-2.2
			c-2.7,0.2-3.7,2.1-5.8,3.5c-1.7,1.1-6,1.4-9.1,1.5s-6.6,0-9.7,0.1c-4.6,0.2-12.8-0.5-20.6,2.9c-5.7-20.4-12-61.1-26.8-73.1
			c-0.7-0.2-1.4-0.1-2,0.2v-0.1l-37.5,12.2c-0.6,12.7,3.1,63.4,6,81.5c1,6.4,3,32.4,5.3,46.7c0.4,2.8,0.9,5.6,1.3,8.4
			c0.6,3,0.8,6.1,0.6,9.2c-0.1,1-0.2,2-0.4,3c-0.3,1.8-0.9,3.5-1.7,5.1c-1,2.3-2.3,4.4-3.8,6.4c-0.8,1-4.3,3.9-1.9,4.7
			c2.8,0.8,5.8,0.3,8.1-1.5c2.3-1.8,4.1-4,5.5-6.5c1.5-2.6,3-5.1,4.3-7.8c0.7-1.3,1.1-2.7,1.3-4.1c0.2-1.7-0.4-1.6-0.2-4.3
			s1.2-17.6,1.2-17.6c0.9-11,1.9-22.7,2-27c0.2-6.9-2-20.7-2-20.7l2-40.4c7.6,14.7,19,34.1,22.7,39.8c5.2,7.8,9.5,7.1,19.5,4
			c8.4-2.6,26-8,35.1-9.1c3.3,0.3,6.3,2.5,9,4.3c2.8,1.9,5.4,4.1,7.8,6.5c0.9,0.8,1.6,1.8,2.2,2.8c0.4,0.7,1.1,1.3,1.5,2
			c1.1,1.7,3.3,2.2,5,1.1c0.3-0.2,0.5-0.3,0.7-0.6c2.1-1.9,2.4-4.9,2.4-7.4C369.5,301.5,368.2,298.7,366,296.6z"/>
		<path d="M353.4,281.2c2.3,2.4,2.8,6,4.6,8.8c1.6,2.2,3.6,3.9,6,5.2c0.7,0.4,1.4,0.9,2,1.4c2.3,2.2,3.7,5.2,3.8,8.4
			c0,2.5-0.5,5.6-2.5,7.5c-1.6,1.5-4.1,1.5-5.7-0.1c-0.2-0.2-0.3-0.3-0.4-0.5c-0.4-0.6-1-1.8-1.3-2.4c-0.6-1-1.3-2-2.2-2.8
			c1.7-0.2,2.9-1.8,2.8-3.5c-0.2-2.3-5.7-8.7-8.5-12.2c-2.8-3.5-8.1-9-10.4-8.5c2.1-1.4,3.1-3.3,5.8-3.5
			C349.6,278.8,351.8,279.6,353.4,281.2z"/>
		<path class="st2" d="M281.6,219.6c-1.2-1.5-9.2-9.5-9.2-9.5c-8.1,7.3-31,8.1-38.5,3.6c0.3,12.4,1.2,26.7,1.8,39.9
			c0.6,12.1,1.5,21.4,1.5,21.4c0.7,10.4,2,22.1,4.1,41.6c1.9,16.9,6.1,40.2,6.1,40.2s5.4,2.2,13.7-0.1c0,0,2-18.3,2.7-26.2
			c0.8-8.7,1.6-13.9-1.5-28.7l1.3-39.7c0,0,12.8,25.4,16.6,31.4s8.2,12.4,11.1,14s4.9,0.8,17.4-2.9s23.2-7.2,23.2-7.2
			s0.8-8.3-1.7-14.1c0,0-8.6,0-13.3,0.2s-11.3,0.8-14.5,2.7c0,0-4.8-21.9-7.9-33C291.6,242.1,288.2,228,281.6,219.6z"/>
		<g id="freepik--character--inject-7">
			<path class="st1" d="M161.2,164.2c0,0,20.8,12,24.7,14.1c4.2,2.2,7,3,9.4,3.2c0,0,22.7,1.1,27.5,1.2c6,0.1,8.6,0.4,11.7-1
				c1.7-0.8,1.7-0.8,6.2-4.1c-0.3-1.6-0.8-3.2-1.5-4.7c-0.6-1.1-5-6.8-6.2-7c-5.3-1-18.9,0.2-22.8,0.4c-4.5,0.2-10.6,0.4-15.1,0.4
				c0,0-25.7-10.3-27.2-12.1s-2-5.4-3.6-7.8c-1.1-1.7-2.6-2.9-3.4-4.8c-0.2-0.4-0.6-1-1-0.8c-0.1,0.1-0.2,0.2-0.3,0.3
				c-0.6,1-0.7,2.3-0.3,3.5c0.3,1,0.9,2.6-0.2,4.1c-1.2-0.9-2.1-3.4-2.5-5.5c-0.2-1.3-0.6-2.6-1.3-3.7c-1.2-1.6-8.6-1.4-9.7,0.2
				c-1.1,1.7-1.2,4.6-0.1,8C148.9,158.4,161.2,164.2,161.2,164.2z"/>
			<g id="freepik--Light--inject-7">
				<path class="st3" d="M158.6,150.7c0.6,1.7-0.3,3.5-2,4.1c-1.7,0.6-3.5-0.3-4.1-2c-0.6-1.7,0.3-3.5,2-4.1c0,0,0,0,0,0
					C156.2,148.1,158,149,158.6,150.7z"/>
				<path class="st2" d="M152,153.1c-2.4-0.5-3-2.4-1.4-4.2c1.9-1.9,4.6-2.8,7.3-2.4c2.4,0.5,3,2.4,1.4,4.2
					C157.3,152.6,154.6,153.5,152,153.1z"/>
				<path class="st3" d="M151.5,152.1c-2.5-0.5-3.1-2.4-1.4-4.3c2-2,4.8-2.9,7.5-2.5c2.5,0.5,3.1,2.5,1.4,4.3
					C157,151.5,154.2,152.5,151.5,152.1z"/>
				<path class="st2" d="M151,151c-2.6-0.5-3.2-2.5-1.5-4.5c2-2,4.9-3,7.8-2.6c2.6,0.5,3.2,2.5,1.5,4.5
					C156.7,150.4,153.8,151.4,151,151z"/>
				<path class="st3" d="M150.5,149.8c-2.6-0.5-3.3-2.6-1.5-4.6c2.1-2.1,5.1-3.1,8-2.7c2.6,0.5,3.3,2.6,1.5,4.6
					C156.4,149.3,153.4,150.3,150.5,149.8z"/>
				<path class="st2" d="M150,148.6c-2.7-0.6-3.4-2.6-1.6-4.7c2.1-2.2,5.2-3.2,8.1-2.7c2.7,0.6,3.4,2.7,1.6,4.7
					C156,148,153,149.1,150,148.6z"/>
				<path class="st4" d="M142.3,111.9c-8,2.7-12.3,11.3-9.7,19.3c0,0,0,0,0,0c3.8,11.5,13.9,10.3,15.5,14.9c0.4,0.9,1.2,1.5,2.1,1.6
					c2.6,0.4,5.2-0.5,7.1-2.3c0.7-0.6,1-1.6,0.8-2.5l0,0c-1.5-4.6,7.3-9.7,3.5-21.2C158.9,113.5,150.3,109.2,142.3,111.9z"/>
				<g class="st5">
					<path class="st6" d="M142.3,111.9c-8,2.7-12.3,11.3-9.7,19.3c0,0,0,0,0,0c3.8,11.5,13.9,10.3,15.5,14.9
						c0.4,0.9,1.2,1.5,2.1,1.6c2.6,0.4,5.2-0.5,7.1-2.3c0.7-0.6,1-1.6,0.8-2.5l0,0c-1.5-4.6,7.3-9.7,3.5-21.2
						C158.9,113.5,150.3,109.2,142.3,111.9z"/>
				</g>
				<path class="st4" d="M150.9,146.7c-1.8-0.4-2.2-1.7-1-3.1c1.4-1.4,3.4-2.1,5.3-1.8c1.8,0.4,2.2,1.7,1,3.1
					C154.8,146.3,152.9,147,150.9,146.7z"/>
				<path class="st6" d="M154.9,143.3c-0.3,0.1-0.6-0.1-0.7-0.3c-0.9-2.8-1.5-5.7-1.7-8.6c-0.1-0.8-0.1-1.7,0-2.5
					c-0.5,0-1-0.1-1.5-0.2c-0.9-0.2-1.7-0.5-2.5-1c-0.4,0.8-0.8,1.6-1.4,2.2c-0.3,0.4-0.7,0.7-1.1,1c0.5,0.7,1,1.3,1.5,2.1
					c1.6,2.5,2.8,5.2,3.8,7.9c0.1,0.3-0.1,0.6-0.4,0.7c-0.3,0.1-0.6-0.1-0.6-0.4l0,0c-0.9-2.7-2.1-5.3-3.6-7.7c-0.4-0.7-1-1.4-1.5-2
					c-0.9,0.5-2,0.6-3,0.1c-0.8-0.3-1.1-1.2-0.9-2c0.1-0.5,0.6-0.9,1.1-1c0.8-0.1,1.9,0.4,2.9,1.5c0.4-0.3,0.7-0.6,1-0.9
					c0.6-0.7,1-1.4,1.3-2.2c-0.9-0.6-1.5-1.5-1.6-2.5c0-0.6,0.4-1.2,1-1.4c0.6-0.2,1.3,0,1.6,0.5c0.5,0.9,0.5,2,0.2,3
					c0.7,0.5,1.5,0.8,2.4,1c0.4,0.1,0.9,0.2,1.3,0.2c0.2-1.5,0.7-2.6,1.4-3c0.5-0.3,1.1-0.2,1.5,0.1c0.6,0.5,0.8,1.4,0.5,2.1
					c-0.5,0.9-1.4,1.6-2.5,1.7c-0.1,0.8-0.1,1.7,0,2.5c0.2,2.8,0.8,5.6,1.7,8.4C155.3,142.8,155.2,143.1,154.9,143.3
					C154.9,143.2,154.9,143.2,154.9,143.3L154.9,143.3z M142.5,132.7c-0.1,0.1-0.2,0.2-0.2,0.3c-0.1,0.4,0.3,0.7,0.4,0.7
					c0.5,0.3,1.2,0.3,1.7,0C143.6,132.9,142.9,132.6,142.5,132.7L142.5,132.7z M153.6,130.7c0.6-0.1,1.1-0.5,1.4-1
					c0.1-0.1,0.2-0.6-0.1-0.8c-0.2-0.1-0.3-0.1-0.4-0.1C154,129.3,153.7,129.9,153.6,130.7L153.6,130.7z M147.4,127.1
					c-0.2,0-0.3,0.2-0.3,0.4c0.1,0.6,0.4,1.1,0.9,1.5c0.2-0.6,0.1-1.2-0.1-1.8C147.8,127,147.6,127,147.4,127.1
					C147.4,127,147.4,127.1,147.4,127.1L147.4,127.1z"/>
			</g>
			<path class="st7" d="M150.9,105.2c-0.5-0.1-0.9-0.6-0.8-1.2c0,0,0,0,0,0l1-5.2c0.1-0.5,0.6-0.9,1.2-0.8c0,0,0,0,0,0l0,0
				c0.5,0.1,0.9,0.6,0.8,1.2c0,0,0,0,0,0l-1,5.2C152,104.9,151.5,105.3,150.9,105.2C150.9,105.2,150.9,105.2,150.9,105.2
				L150.9,105.2z"/>
			<path class="st7" d="M139.3,106.1c-0.4-0.1-0.6-0.3-0.8-0.7l-1.8-5c-0.2-0.5,0.1-1.1,0.6-1.3c0.5-0.2,1.1,0.1,1.3,0.6l1.8,5
				c0.2,0.5-0.1,1.1-0.6,1.3c0,0,0,0,0,0C139.7,106.1,139.5,106.1,139.3,106.1z"/>
			<path class="st7" d="M129.7,112.6c-0.2,0-0.3-0.1-0.5-0.2l-4-3.4c-0.4-0.4-0.5-1-0.1-1.4s1-0.5,1.4-0.1l0,0l4,3.4
				c0.4,0.3,0.5,1,0.2,1.4C130.5,112.6,130.1,112.7,129.7,112.6z"/>
			<path class="st7" d="M119.5,122.2c-0.6-0.1-0.9-0.6-0.8-1.2s0.6-0.9,1.2-0.8l5.2,1l0,0c0.6,0.1,0.9,0.6,0.8,1.2s-0.6,0.9-1.2,0.8
				l0,0L119.5,122.2z"/>
			<path class="st7" d="M120.6,136.5c-0.4-0.1-0.6-0.3-0.8-0.7c-0.2-0.5,0.1-1.1,0.6-1.3c0,0,0,0,0,0l5-1.8c0.5-0.2,1.1,0.1,1.3,0.6
				c0.2,0.5-0.1,1.1-0.6,1.3l-5,1.8C120.9,136.5,120.7,136.5,120.6,136.5z"/>
			<path class="st7" d="M168.9,131.4c-0.6-0.1-0.9-0.6-0.8-1.2c0.1-0.6,0.6-0.9,1.2-0.8l5.2,1l0,0c0.6,0.1,0.9,0.6,0.8,1.2
				c-0.1,0.6-0.6,0.9-1.2,0.8L168.9,131.4z"/>
			<path class="st7" d="M168,119.8c-0.4-0.1-0.6-0.3-0.8-0.7c-0.2-0.5,0.1-1.1,0.6-1.3c0,0,0,0,0,0l5-1.8c0.5-0.2,1.1,0.1,1.3,0.6
				c0.2,0.5-0.1,1.1-0.6,1.3l-5,1.7C168.3,119.8,168.2,119.9,168,119.8z"/>
			<path class="st7" d="M161.4,110.2c-0.2,0-0.3-0.1-0.5-0.2c-0.4-0.4-0.4-1-0.1-1.4l3.4-4c0.4-0.4,1-0.5,1.4-0.1s0.5,1,0.1,1.4l0,0
				l-3.4,4C162.2,110.2,161.8,110.3,161.4,110.2z"/>
			<path class="st0" d="M238.9,157.5c1.5,1.4,2.7,4.2,4,5.8c7.9,9.7,19.4,15.8,31.8,17c3.1,0.4,6.3,0.1,9.3-0.8c3-0.9,5.6-3,7.1-5.8
				c1.5-2.9,1.2-6.3-0.8-8.8c3.8-1.9,7.4-5.2,7.7-9.5c0.2-3.4-1.8-6.6-4.6-8.5c-2.8-1.9-6-3.1-9.4-3.6c-3.3-0.5-6.6-1.2-9.9-2.2
				c-5.1-1.8-8.9-4.3-11.1-9.2c-3.1-6.8-3.1-13-11-12.8c-1.5-4.2-4.1-5.8-7.6-7.1s-7.3-0.8-10.8,0c-5.7,1.3-10.6,5.2-16.4,5.8
				c-1.5,0.2-3.1,0.1-4.7,0.4c-1.6,0.2-3,1.1-3.8,2.5c-0.7,1.8-0.4,3.9,0.7,5.5c1.2,1.4,2.6,2.6,4.1,3.5c-1.6,1-2.5,6.5,2.2,8.7
				c2.3,1.2,4.8,1.8,7.4,1.8c-0.2,0,1.2,11.2,1.5,12.2c0.7,2.6,5.9,3.3,8.2,3.9c1.7,0.4,4.4,0,5.7,1L238.9,157.5z"/>
			<path class="st0" d="M252,119.9l5.2-2.5c-0.7-1.5-2.5-2.1-4-1.4c-1.4,0.7-2,2.4-1.3,3.8C252,119.8,252,119.9,252,119.9z"/>
			<path class="st4" d="M223.5,183.3c2.6-6.1,5.7-11.9,9.4-17.4l19.6-2.8c2.1-0.3,5.1-0.6,6.3-0.6c1,0,2,0.1,3,0.4
				c3.7,1.2,4.7,4.5,5.5,8.5c0.9,4.4,3.3,8.4,3.4,15.9l-1,8.9l-0.1,1.5c0,0.3,0,0.5,0,0.8c-0.3,3.7,0.9,7.3,3.4,10
				c5.9,7,6.9,8,9.2,11.3c-4.7,8.9-36.1,20.8-48.2,10.7c0,0-0.7-16.1-1-20.2c-1.1-5.6-2.3-9.3-2.6-10.6
				C223.4,197.6,221.2,188.8,223.5,183.3z"/>
			<path class="st8" d="M237,197.4c0,0,6.2,3.8,12.5,0.7c3.6-1.6,6.1-5,6.6-8.9c0,0,1.6,7.4-6.4,10.9
				C245.3,202.1,240.1,201,237,197.4z"/>
			<path class="st1" d="M219.2,144.1c1.9,11.8,4.9,14.7,8,15.3c2.1,0.4,5.7-0.2,9.2-1.1l0.7,7.1c0,0-2.6,3.5-2.5,5.3
				c0.2,3.3,6.2,2.8,11.1,0.1c2.2-1.4,4.1-3.2,5.5-5.4c0.4-0.7,0.6-1.5,0.6-2.3l-1.4-15.6c0,0,2.2,2.1,5-1.1c2.8-3.3,3-7.2,0.2-9.3
				c-1.9-1.4-4.5-1.3-6.1,1.6c-0.9,2.1-0.8,4.2-2,3.5c-3-1.7-1.8-6-3.8-8.1c-2.3-2.4-5.9-3.4-9.1-4c-4.8-0.8-9.6-0.2-13-4.2
				C220.5,125.9,217.1,131.1,219.2,144.1z"/>
			<path class="st0" d="M232.3,140.5c0.1,0.9,0.8,1.5,1.7,1.5c0.9-0.1,1.5-0.8,1.5-1.7c-0.1-0.9-0.8-1.5-1.7-1.5
				C232.9,138.8,232.2,139.5,232.3,140.5C232.3,140.4,232.3,140.5,232.3,140.5z"/>
			<path class="st0" d="M221,141c0,0.8,0.7,1.5,1.6,1.5c0,0,0,0,0,0c0.8,0,1.4-0.6,1.5-1.4c0-0.1,0-0.1,0-0.2c0-0.8-0.7-1.5-1.5-1.5
				c0,0,0,0,0,0C221.6,139.4,221,140.2,221,141z"/>
			<polygon class="st9" points="228.3,139.2 228.9,149.2 223.5,148.1 			"/>
			<path class="st9" d="M236.4,158.2c3.8-0.8,11.4-3.8,12.3-7c-0.3,1.6-1.2,3.1-2.4,4.2c-2.1,2.2-9.7,5.2-9.7,5.2L236.4,158.2z"/>
			<path class="st0" d="M233.4,135.3l3.9,1.3c0.3-1.1-0.3-2.3-1.3-2.6C234.9,133.6,233.7,134.1,233.4,135.3
				C233.4,135.2,233.4,135.2,233.4,135.3z"/>
			<path class="st0" d="M220,137.7l3.5-2c-0.6-1-1.9-1.3-2.9-0.8C219.8,135.5,219.5,136.7,220,137.7C220,137.7,220,137.7,220,137.7z
				"/>
			<path class="st9" d="M236.5,149.1l-4.8,2.2c0.5,1.3,2,2,3.4,1.4c0,0,0.1,0,0.1,0C236.5,152.2,237.2,150.6,236.5,149.1
				C236.6,149.2,236.6,149.2,236.5,149.1z"/>
			<path class="st1" d="M316.9,218.3c0,0-9.1-21.2-11-25.2c-2.3-4.8-3.9-6.4-5.8-7.8c0,0-18.3-15.2-22.3-17.8c-5-3.3-7.6-4.9-11-5.3
				c-1.9-0.3-2.8,0-8.3,0.4c-3.9,9.8,1.9,25.1,12.2,24.9l0.2-4.1l22.4,14.9c0,0,13.7,21.8,14,24.1s-0.4,5.5-0.4,8.4
				c0,2,0.6,3.9,0.3,5.8c-0.1,0.5-0.1,1.2,0.4,1.2c0.1,0,0.3,0,0.4-0.1c1.1-0.5,1.9-1.6,2.1-2.8c0.3-1,0.2-1.8,0.5-2.8
				c0.6,1.8,0.9,3.6,1,5.5c0.1,1.2,0.4,2.6,0.5,3.6c0.2,2,3.2,1.9,4.9,0.9c1.6-0.9,2.8-2.5,3.3-4.4
				C322.7,230.8,316.9,218.3,316.9,218.3z"/>
			<path class="st9" d="M270.9,183.2c-3.4-1.5-8.5-5.7-8.5-5.7s4.1,7,8.4,7.8L270.9,183.2z"/>
		</g>
		<path class="st3" d="M263.7,262.1l-5.6-13.3c0,0-9-0.8-14.4-4.5c0,0,3.7,5.2,12,6.9l6.5,11.4l0.6,28.3L263.7,262.1z"/>
	</g>
</g>
<g id="freepik--light-bulb--inject-7">
	<g id="freepik--Idea--inject-7">
		<g id="freepik--light--inject-7">
			<path class="st3" d="M276.9,128.8c-0.6,1.5-2.3,2.3-3.8,1.7s-2.3-2.3-1.7-3.8c0.6-1.5,2.3-2.3,3.8-1.7
				C276.7,125.6,277.4,127.3,276.9,128.8C276.9,128.8,276.9,128.8,276.9,128.8z"/>
			<path class="st2" d="M270.7,126.7c-1.4-1.7-0.8-3.4,1.4-3.8c2.5-0.3,4.9,0.7,6.6,2.5c1.4,1.7,0.8,3.4-1.4,3.8
				C274.8,129.4,272.4,128.5,270.7,126.7z"/>
			<path class="st3" d="M271,125.7c-1.5-1.8-0.8-3.6,1.5-3.9c2.6-0.3,5.1,0.7,6.8,2.6c1.5,1.8,0.8,3.6-1.5,3.9
				C275.2,128.5,272.7,127.5,271,125.7z"/>
			<path class="st2" d="M271.3,124.6c-1.5-1.8-0.8-3.7,1.5-4c2.6-0.3,5.2,0.7,7,2.6c1.5,1.8,0.8,3.7-1.5,4.1
				C275.6,127.6,273,126.6,271.3,124.6z"/>
			<path class="st3" d="M271.5,123.5c-1.6-1.9-0.9-3.8,1.6-4.2c2.7-0.3,5.4,0.7,7.2,2.7c1.6,1.9,0.9,3.8-1.6,4.2
				C276.1,126.5,273.4,125.5,271.5,123.5z"/>
			<path class="st2" d="M271.9,122.4c-1.6-2-0.9-3.9,1.6-4.3c2.8-0.3,5.5,0.7,7.4,2.8c1.6,1.9,0.9,3.8-1.6,4.3
				C276.5,125.4,273.7,124.4,271.9,122.4z"/>
			<path class="st4" d="M287.7,91.6c-7.2-2.7-15.3,0.9-18.1,8.1c0,0,0,0,0,0.1c-3.9,10.4,4,15.4,2.4,19.6c-0.2,0.8,0,1.7,0.6,2.3
				c1.6,1.8,4,2.7,6.4,2.4c0.9-0.1,1.6-0.6,2-1.3l0,0c1.6-4.2,10.8-2.7,14.8-13.1C298.6,102.4,294.9,94.4,287.7,91.6
				C287.7,91.6,287.7,91.6,287.7,91.6z"/>
			<g class="st5">
				<path class="st6" d="M287.7,91.6c-7.2-2.7-15.3,0.9-18.1,8.1c0,0,0,0,0,0.1c-3.9,10.4,4,15.4,2.4,19.6c-0.2,0.8,0,1.7,0.6,2.3
					c1.6,1.8,4,2.7,6.4,2.4c0.9-0.1,1.6-0.6,2-1.3l0,0c1.6-4.2,10.8-2.7,14.8-13.1C298.6,102.4,294.9,94.4,287.7,91.6
					C287.7,91.6,287.7,91.6,287.7,91.6z"/>
			</g>
			<path class="st4" d="M273.7,121.5c-1-1.3-0.6-2.5,1-2.8c1.8-0.2,3.6,0.5,4.8,1.8c1,1.3,0.6,2.5-1,2.8
				C276.7,123.5,274.9,122.8,273.7,121.5z"/>
			<path class="st6" d="M278.5,121.3c-0.2-0.1-0.4-0.4-0.3-0.6c1-2.5,2.2-4.9,3.8-7.1c0.4-0.6,0.9-1.3,1.4-1.8
				c-0.3-0.3-0.7-0.6-0.9-1c-0.5-0.7-0.9-1.4-1.2-2.2c-0.7,0.4-1.5,0.7-2.3,0.8c-0.4,0.1-0.9,0.1-1.4,0.1c0,0.8,0,1.6-0.1,2.3
				c-0.3,2.7-1,5.3-1.9,7.8c-0.1,0.2-0.4,0.4-0.6,0.3c-0.2-0.1-0.4-0.4-0.3-0.6c0.9-2.5,1.5-5,1.8-7.6c0.1-0.8,0.1-1.5,0.1-2.3
				c-1-0.2-1.8-0.8-2.2-1.7c-0.3-0.7-0.1-1.5,0.5-1.9c0.4-0.3,1-0.3,1.4-0.1c0.8,0.7,1.2,1.7,1.2,2.8c0.4,0,0.8,0,1.2-0.1
				c0.8-0.1,1.5-0.4,2.2-0.8c-0.3-0.9-0.2-1.9,0.3-2.8c0.3-0.5,1-0.7,1.5-0.4c0.6,0.2,0.9,0.7,0.9,1.3c-0.2,0.9-0.8,1.8-1.6,2.3
				c0.3,0.7,0.6,1.4,1.1,2.1c0.2,0.3,0.5,0.6,0.9,0.9c0.7-0.8,1.7-1.3,2.7-1.3c0.5,0.1,0.9,0.5,1,1c0.2,0.7-0.2,1.5-0.9,1.8
				c-0.9,0.4-1.9,0.3-2.8-0.2c-0.5,0.6-1,1.2-1.5,1.8c-1.5,2.2-2.7,4.5-3.6,6.9C279,121.3,278.7,121.4,278.5,121.3L278.5,121.3z
				 M275.8,106.6c-0.1,0-0.2,0-0.3,0.1c-0.3,0.2-0.2,0.6-0.1,0.8c0.2,0.5,0.7,0.9,1.2,1C276.6,107.8,276.3,107.1,275.8,106.6
				L275.8,106.6z M284.9,111.6c0.5,0.3,1.1,0.3,1.6,0.1c0.1-0.1,0.5-0.3,0.4-0.7c-0.1-0.2-0.2-0.3-0.3-0.3
				C286.3,110.7,285.7,110.9,284.9,111.6z M282.5,105.4c-0.2-0.1-0.3,0-0.4,0.1c0,0,0,0,0,0c-0.3,0.5-0.3,1.1-0.2,1.6
				c0.4-0.3,0.8-0.8,0.9-1.3C282.8,105.6,282.7,105.5,282.5,105.4C282.5,105.4,282.5,105.4,282.5,105.4L282.5,105.4z"/>
		</g>
		<path class="st7" d="M289.6,86.7c-0.1,0-0.2,0-0.2,0c-0.5-0.2-0.7-0.7-0.5-1.2l1.7-4.5c0.2-0.5,0.7-0.7,1.2-0.5c0,0,0,0,0,0
			c0.5,0.2,0.7,0.7,0.5,1.2l-1.7,4.5C290.4,86.5,290.1,86.7,289.6,86.7z"/>
		<path class="st7" d="M279.1,85.7c-0.4,0-0.7-0.3-0.8-0.8l-0.8-4.7c-0.1-0.5,0.3-1,0.8-1c0.5,0,0.9,0.3,1,0.7l0.8,4.7
			c0.1,0.5-0.3,1-0.8,1.1C279.3,85.7,279.2,85.7,279.1,85.7z"/>
		<path class="st7" d="M269.6,90.1c-0.2,0-0.5-0.1-0.6-0.3l-3.1-3.7c-0.3-0.4-0.3-1,0.1-1.3c0.4-0.3,1-0.3,1.3,0.1l3.1,3.7
			c0.3,0.4,0.3,1-0.1,1.3C270,90.1,269.8,90.1,269.6,90.1z"/>
		<path class="st7" d="M263.5,98.7c-0.1,0-0.2,0-0.2,0l-4.5-1.7c-0.5-0.2-0.7-0.7-0.5-1.1c0,0,0,0,0,0c0.2-0.5,0.7-0.7,1.2-0.6
			c0,0,0,0,0,0l4.5,1.6c0.5,0.2,0.7,0.7,0.5,1.2C264.2,98.5,263.9,98.7,263.5,98.7L263.5,98.7z"/>
		<path class="st7" d="M298.7,125.2c-0.2,0-0.5-0.1-0.6-0.3l-3-3.7c-0.3-0.4-0.2-1,0.2-1.3c0.4-0.3,0.9-0.2,1.2,0.1l3,3.7
			c0.3,0.4,0.3,1-0.1,1.3C299.1,125.1,298.9,125.2,298.7,125.2z"/>
		<path class="st7" d="M306.2,114.5c-0.1,0-0.2,0-0.2,0l-4.5-1.7c-0.5-0.2-0.7-0.7-0.5-1.2c0.2-0.5,0.7-0.7,1.2-0.5l4.5,1.7
			c0.5,0.2,0.7,0.7,0.5,1.2C306.9,114.3,306.6,114.5,306.2,114.5L306.2,114.5z"/>
		<path class="st7" d="M302.7,102.4c-0.5-0.1-0.9-0.5-0.8-1c0-0.4,0.3-0.7,0.7-0.8l4.7-0.8c0.5-0.1,1,0.2,1,0.7c0,0,0,0,0,0
			c0.1,0.5-0.2,1-0.7,1.1c0,0,0,0,0,0l-4.7,0.8C302.8,102.4,302.8,102.4,302.7,102.4z"/>
		<path class="st7" d="M298.3,92.8c-0.5,0-0.9-0.5-0.8-1c0-0.2,0.1-0.5,0.3-0.6l3.7-3c0.4-0.3,1-0.2,1.3,0.2
			c0.3,0.4,0.2,0.9-0.1,1.2l-3.7,3.1C298.7,92.7,298.5,92.8,298.3,92.8z"/>
	</g>
</g>
<g id="freepik--Shines--inject-7">
	<g id="freepik--Shine--inject-7">
		<path class="st4" d="M305.1,143.4c-0.3,0-0.6-0.2-0.6-0.6v-0.6c-0.1-1.5-1.3-2.8-2.9-2.9l-0.6-0.1c-0.3,0-0.6-0.3-0.6-0.6
			c0-0.3,0.3-0.6,0.6-0.6l0,0h0.6l0,0c1.5-0.1,2.8-1.3,2.9-2.9v-0.6c0-0.3,0.3-0.6,0.6-0.6l0,0c0.3,0,0.6,0.2,0.6,0.6v0.6
			c0.1,1.5,1.3,2.8,2.9,2.9h0.6c0.3,0,0.6,0.3,0.6,0.6c0,0.3-0.3,0.6-0.6,0.6l-0.6,0.1c-1.5,0.1-2.8,1.3-2.9,2.9v0.6
			C305.7,143.2,305.4,143.4,305.1,143.4z M303.5,138.7c0.7,0.4,1.2,0.9,1.6,1.6c0.4-0.7,0.9-1.2,1.6-1.6c-0.7-0.4-1.2-0.9-1.6-1.6
			C304.7,137.8,304.2,138.4,303.5,138.7z"/>
		<path class="st4" d="M319.5,133.9c-2.2,0-3.9-1.8-3.9-3.9c0-2.2,1.8-3.9,3.9-3.9c2.2,0,3.9,1.8,3.9,3.9
			C323.4,132.1,321.6,133.9,319.5,133.9L319.5,133.9z M319.5,127.2c-1.5,0-2.7,1.2-2.7,2.7c0,1.5,1.2,2.7,2.7,2.7
			c1.5,0,2.7-1.2,2.7-2.7c0,0,0,0,0,0C322.2,128.4,321,127.2,319.5,127.2z"/>
		<path class="st4" d="M322.7,144.7c-0.3,0-0.6-0.3-0.6-0.6c0,0,0,0,0,0v-2.1c0-0.3,0.3-0.6,0.6-0.6c0.3,0,0.6,0.3,0.6,0.6
			c0,0,0,0,0,0v2.1C323.3,144.4,323.1,144.7,322.7,144.7z"/>
		<path class="st4" d="M321.5,146h-2c-0.3,0-0.6-0.3-0.6-0.6c0-0.3,0.3-0.6,0.6-0.6c0,0,0,0,0,0h2c0.3,0,0.6,0.3,0.6,0.6
			C322.1,145.7,321.9,145.9,321.5,146C321.5,146,321.5,146,321.5,146z"/>
		<path class="st4" d="M322.7,149.4c-0.3,0-0.6-0.3-0.6-0.6v-2c0-0.3,0.3-0.6,0.6-0.6c0.3,0,0.6,0.3,0.6,0.6c0,0,0,0,0,0v2
			C323.4,149.1,323.1,149.3,322.7,149.4C322.7,149.4,322.7,149.4,322.7,149.4z"/>
		<path class="st4" d="M326.1,146h-2c-0.3,0-0.6-0.3-0.6-0.6c0,0,0,0,0,0c0-0.3,0.3-0.6,0.6-0.6h2c0.3,0,0.6,0.3,0.6,0.6
			c0,0,0,0,0,0C326.7,145.7,326.5,146,326.1,146z"/>
	</g>
	<g id="freepik--shine--inject-7">
		<path class="st4" d="M250.7,87.1c-0.3,0-0.6-0.2-0.6-0.6v-0.6c-0.1-1.5-1.3-2.8-2.9-2.9l-0.6-0.1c-0.3,0-0.6-0.3-0.6-0.6
			c0-0.3,0.3-0.6,0.6-0.6l0,0h0.6l0,0c1.5-0.1,2.8-1.3,2.9-2.9v-0.6c0-0.3,0.3-0.6,0.6-0.6c0.3,0,0.6,0.2,0.6,0.6v0.6
			c0.1,1.5,1.3,2.8,2.9,2.9h0.6c0.3,0,0.6,0.3,0.6,0.6c0,0.3-0.3,0.6-0.6,0.6l-0.6,0.1c-1.5,0.1-2.8,1.3-2.9,2.9v0.6
			C251.3,86.8,251.1,87.1,250.7,87.1z M249.2,82.4c0.7,0.4,1.2,0.9,1.6,1.6c0.4-0.7,0.9-1.2,1.6-1.6c-0.7-0.4-1.2-0.9-1.6-1.6
			C250.4,81.4,249.8,82,249.2,82.4z"/>
		<path class="st4" d="M243.3,100.9c-2.2,0-3.9-1.8-3.9-3.9s1.8-3.9,3.9-3.9c2.2,0,3.9,1.8,3.9,3.9
			C247.3,99.2,245.5,100.9,243.3,100.9z M243.3,94.3c-1.5,0-2.7,1.2-2.7,2.7c0,1.5,1.2,2.7,2.7,2.7c1.5,0,2.7-1.2,2.7-2.7
			c0,0,0,0,0,0C246,95.5,244.8,94.3,243.3,94.3z"/>
		<path class="st4" d="M231.1,83.9c-0.3,0-0.6-0.3-0.6-0.6v-2.1c0-0.3,0.3-0.6,0.6-0.6c0.3,0,0.6,0.3,0.6,0.6v2.1
			C231.7,83.7,231.4,83.9,231.1,83.9C231.1,83.9,231.1,83.9,231.1,83.9z"/>
		<path class="st4" d="M229.9,85.2h-2c-0.3,0-0.6-0.3-0.6-0.6c0-0.3,0.3-0.6,0.6-0.6c0,0,0,0,0,0h2c0.3,0,0.6,0.3,0.6,0.6
			C230.5,84.9,230.2,85.2,229.9,85.2C229.9,85.2,229.9,85.2,229.9,85.2z"/>
		<path class="st4" d="M231.1,88.6c-0.3,0-0.6-0.3-0.6-0.6v-2.1c0-0.3,0.3-0.6,0.6-0.6c0,0,0,0,0,0c0.3,0,0.6,0.3,0.6,0.6v2
			C231.7,88.3,231.5,88.6,231.1,88.6C231.1,88.6,231.1,88.6,231.1,88.6z"/>
		<path class="st4" d="M234.5,85.2h-2c-0.3,0-0.6-0.3-0.6-0.6c0,0,0,0,0,0c0-0.3,0.3-0.6,0.6-0.6h2c0.3,0,0.6,0.3,0.6,0.6
			c0,0,0,0,0,0C235.1,84.9,234.8,85.2,234.5,85.2z"/>
	</g>
	<g id="freepik--shine--inject-7_00000105395730070783354080000017661000632418869949_">
		<path class="st4" d="M101.8,133.3L101.8,133.3c-0.3,0-0.6-0.2-0.6-0.5l-0.1-0.6l0,0c-0.2-1.5-1.5-2.7-3-2.8h-0.6
			c-0.3,0-0.6-0.4-0.5-0.7c0-0.3,0.3-0.5,0.5-0.5l0.6-0.1c1.5-0.2,2.7-1.5,2.8-3v-0.6c0-0.3,0.3-0.6,0.6-0.6c0.3,0,0.6,0.2,0.6,0.5
			l0.1,0.6c0.2,1.5,1.5,2.7,3,2.8h0.6c0.3,0,0.6,0.2,0.6,0.6c0,0.3-0.2,0.6-0.6,0.6l-0.6,0.1c-1.5,0.2-2.7,1.5-2.8,3v0.6
			C102.4,133,102.1,133.3,101.8,133.3C101.8,133.3,101.8,133.3,101.8,133.3z M99.9,128.6c0.7,0.4,1.2,0.9,1.7,1.5
			c0.4-0.7,0.9-1.2,1.5-1.7c-0.7-0.4-1.2-0.9-1.6-1.5C101.1,127.6,100.6,128.2,99.9,128.6z"/>
		<path class="st4" d="M112.4,152c-0.8,0.1-1.6-0.1-2.4-0.6c-1.9-1.1-2.4-3.5-1.3-5.4c1.1-1.9,3.5-2.4,5.4-1.3
			c1.9,1.1,2.4,3.5,1.3,5.4C114.8,151.2,113.7,151.9,112.4,152z M111.9,145.3c-0.1,0-0.3,0-0.4,0.1c-1.5,0.4-2.4,1.8-2,3.3
			c0.4,1.5,1.8,2.3,3.3,2s2.3-1.8,2-3.3c-0.2-0.7-0.6-1.3-1.3-1.7C113,145.4,112.4,145.3,111.9,145.3L111.9,145.3z"/>
		<path class="st4" d="M89.3,146.9L89.3,146.9l-2,0.1c-0.3,0.1-0.7-0.2-0.7-0.5s0.2-0.7,0.5-0.7c0,0,0.1,0,0.1,0l2-0.1
			c0.3,0,0.6,0.2,0.7,0.6C89.9,146.6,89.6,146.9,89.3,146.9z"/>
		<path class="st4" d="M90.7,150.1L90.7,150.1c-0.3,0-0.6-0.2-0.6-0.6l-0.1-2.1c0-0.3,0.2-0.6,0.6-0.7c0.3,0,0.6,0.2,0.6,0.6l0.1,2
			C91.3,149.7,91.1,150,90.7,150.1C90.7,150.1,90.7,150.1,90.7,150.1z"/>
		<path class="st4" d="M93.9,146.6L93.9,146.6l-2,0.1c-0.3,0-0.6-0.2-0.6-0.6c0,0,0,0,0,0c0-0.3,0.2-0.6,0.6-0.7l2.1-0.1
			c0.3,0,0.6,0.2,0.6,0.6c0,0,0,0,0,0C94.5,146.3,94.3,146.6,93.9,146.6C93.9,146.6,93.9,146.6,93.9,146.6z"/>
		<path class="st4" d="M90.4,145.5L90.4,145.5c-0.3,0-0.6-0.2-0.6-0.6c0,0,0,0,0,0l-0.1-2.1c0-0.3,0.3-0.6,0.6-0.6
			c0.3,0,0.5,0.2,0.6,0.5l0.1,2C91,145.1,90.8,145.4,90.4,145.5C90.4,145.5,90.4,145.5,90.4,145.5z"/>
	</g>
</g>
</svg>
